<svg width="145" height="146" viewBox="0 0 145 146" fill="none" xmlns="http://www.w3.org/2000/svg">
<path d="M68.1371 0.0228333C67.924 0.0532777 66.7972 0.159833 65.6248 0.251166C64.4524 0.357722 62.6405 0.555611 61.5899 0.707833C60.5393 0.875277 58.5599 1.24061 57.1743 1.52983C55.7887 1.81905 53.7027 2.33661 52.5303 2.6715C51.3579 3.00639 49.546 3.58483 48.4954 3.95016C47.4448 4.3155 45.8765 4.92439 44.9933 5.2745C44.1102 5.63983 42.2983 6.44661 40.9584 7.10116C39.6185 7.74049 37.7 8.72994 36.6951 9.30838C35.6902 9.8716 33.7108 11.1198 32.2795 12.0636C30.8482 13.0074 28.7013 14.56 27.4832 15.5343C26.2652 16.5085 24.4228 18.0916 23.3722 19.0506C22.3216 19.9944 20.7837 21.5166 19.9463 22.4147C19.1088 23.3128 17.8908 24.6676 17.236 25.4287C16.5813 26.1898 15.485 27.5598 14.7846 28.4884C14.0842 29.4169 13.0641 30.8174 12.5159 31.6089C11.983 32.4005 10.9628 33.9836 10.2777 35.11C9.59249 36.2365 8.42007 38.398 7.65877 39.905C6.89746 41.412 5.78595 43.878 5.1769 45.385C4.56785 46.892 3.74564 49.1449 3.34976 50.4084C2.95388 51.6566 2.36006 53.7572 2.02508 55.0511C1.70533 56.345 1.20287 58.7806 0.913571 60.455C0.624273 62.1295 0.304523 64.4585 0.19794 65.6306C0.0761309 66.8636 0 69.8776 0 72.785C0 75.6924 0.0761309 78.7064 0.19794 79.9394C0.304523 81.1116 0.624273 83.4406 0.913571 85.115C1.20287 86.7894 1.70533 89.225 2.02508 90.5189C2.36006 91.8128 2.95388 93.8982 3.34976 95.1617C3.74564 96.4099 4.58308 98.7084 5.20735 100.261C5.83162 101.814 7.03449 104.447 7.90239 106.122C8.75505 107.796 10.0188 110.064 10.6888 111.145C11.374 112.226 12.5616 114.022 13.3229 115.103C14.0994 116.184 15.2566 117.736 15.8961 118.513C16.5356 119.304 17.6319 120.613 18.3323 121.405C19.0479 122.212 20.5553 123.779 21.6821 124.906C22.824 126.032 24.6055 127.661 25.6561 128.544C26.7067 129.412 28.3055 130.69 29.2343 131.391C30.1631 132.076 31.8075 133.217 32.8885 133.933C33.9696 134.633 35.6902 135.683 36.6951 136.262C37.7 136.84 39.6185 137.83 40.9584 138.469C42.2983 139.123 44.1102 139.93 44.9933 140.296C45.8765 140.646 47.4448 141.255 48.4954 141.62C49.546 141.985 51.3579 142.564 52.5303 142.899C53.7027 143.233 55.9257 143.766 57.4788 144.101C59.0319 144.421 61.057 144.786 61.9705 144.908C62.8841 145.045 64.4981 145.243 65.5487 145.349C66.7059 145.471 69.34 145.547 72.2482 145.547C75.1107 145.547 77.8058 145.471 78.9477 145.349C79.9983 145.243 81.6123 145.045 82.5259 144.923C83.4394 144.786 85.3579 144.451 86.7892 144.162C88.2205 143.873 90.2303 143.386 91.2809 143.096C92.3315 142.807 93.8389 142.351 94.6307 142.092C95.4224 141.833 97.143 141.209 98.4372 140.722C99.7314 140.219 101.954 139.245 103.386 138.56C104.817 137.875 106.964 136.734 108.182 136.049C109.4 135.348 111.105 134.298 111.989 133.704C112.872 133.111 114.242 132.152 115.034 131.573C115.826 130.98 117.059 130.021 117.774 129.442C118.49 128.864 119.921 127.615 120.972 126.687C122.023 125.743 123.697 124.084 124.702 123.003C125.723 121.922 127.078 120.385 127.748 119.593C128.402 118.802 129.499 117.386 130.184 116.473C130.869 115.559 132.026 113.9 132.742 112.819C133.442 111.739 134.432 110.156 134.904 109.318C135.391 108.481 136.289 106.807 136.899 105.589C137.508 104.371 138.36 102.56 138.787 101.555C139.228 100.55 139.868 98.9063 140.233 97.9017C140.598 96.897 141.162 95.1769 141.497 94.0961C141.832 93.0153 142.38 90.9603 142.715 89.5294C143.05 88.0985 143.507 85.8152 143.72 84.43C143.948 83.0448 144.222 80.9289 144.344 79.7111C144.481 78.2954 144.573 75.8142 144.573 72.785C144.573 69.7558 144.481 67.2746 144.344 65.8589C144.222 64.6411 143.948 62.5252 143.72 61.14C143.507 59.7548 143.05 57.4715 142.715 56.0406C142.38 54.6097 141.832 52.5547 141.497 51.4739C141.162 50.3931 140.598 48.673 140.233 47.6684C139.868 46.6637 139.213 45.0197 138.787 44.015C138.36 43.0104 137.508 41.1989 136.899 39.9811C136.274 38.7634 135.391 37.0889 134.904 36.2517C134.432 35.4145 133.381 33.74 132.574 32.5223C131.783 31.3045 130.61 29.63 129.971 28.7928C129.331 27.9556 128.311 26.6465 127.687 25.9006C127.047 25.1547 125.723 23.6477 124.702 22.5669C123.697 21.4862 122.023 19.8269 120.972 18.8832C119.921 17.9546 118.49 16.7064 117.774 16.1279C117.059 15.5495 115.826 14.5905 115.034 13.9968C114.242 13.4184 112.872 12.4594 111.989 11.8657C111.105 11.272 109.4 10.2217 108.182 9.52149C106.964 8.83649 104.817 7.69483 103.386 7.00983C101.954 6.32483 99.8685 5.39627 98.7417 4.97005C97.615 4.52861 96.1076 3.96539 95.392 3.72183C94.6764 3.47828 93.1385 3.00639 91.9661 2.6715C90.7937 2.33661 88.7229 1.81905 87.3678 1.52983C85.9974 1.25583 84.2464 0.905722 83.4851 0.783944C82.7086 0.662166 81.0794 0.449055 79.8613 0.312055C78.5366 0.175055 75.8263 0.0532777 73.0856 0.0228333C70.5733 -0.00761111 68.3503 -0.00761111 68.1371 0.0228333Z" fill="#313131"/>
<path d="M69.247 10.8459C70.4803 10.8154 71.5461 10.7545 71.607 10.6784C71.6679 10.6175 72.1247 10.6327 72.6272 10.6936C73.1297 10.7697 74.0432 10.8002 74.637 10.785C75.2461 10.7697 76.7535 10.8611 77.9868 10.9829C79.2354 11.1199 81.2757 11.3939 82.5242 11.607C83.788 11.8049 85.4629 12.1397 86.2546 12.3529C87.0464 12.5507 88.2188 12.8552 88.8431 13.0226C89.4673 13.1901 90.8834 13.6315 91.9644 13.9969C93.0607 14.3774 94.6442 14.9559 95.5121 15.306C96.3648 15.6409 97.9788 16.3715 99.0903 16.9195C100.187 17.4523 101.892 18.3504 102.851 18.8984C103.81 19.4616 105.181 20.2988 105.896 20.7555C106.612 21.2274 107.952 22.1864 108.865 22.8714C109.794 23.5564 111.165 24.6524 111.911 25.2917C112.672 25.9311 114.225 27.3924 115.398 28.5341C116.555 29.6757 118.153 31.3654 118.96 32.2939C119.752 33.2073 120.955 34.7143 121.64 35.6428C122.325 36.5562 123.33 38.0023 123.894 38.8395C124.442 39.6767 125.492 41.4273 126.208 42.7212C126.939 44.0151 127.563 45.2481 127.624 45.4612C127.67 45.6743 127.639 45.9483 127.563 46.07C127.472 46.1918 125.934 46.9834 124.137 47.8206C122.341 48.6578 120.3 49.6168 119.585 49.9365C118.884 50.2714 117.864 50.7433 117.316 50.9868C116.768 51.2304 115.535 51.8088 114.575 52.2655C113.616 52.7222 109.398 54.7163 105.211 56.6799C101.024 58.6436 96.3648 60.8356 94.8574 61.551C93.35 62.2665 91.1574 63.3016 89.985 63.8344C88.8126 64.3824 87.3052 65.0826 86.6353 65.4023C85.9653 65.7067 84.6254 66.3308 83.6662 66.7723C82.7069 67.2137 81.367 67.8378 80.6971 68.1575C80.0271 68.4771 76.4946 70.1516 66.2322 74.977L66.1561 99.9567H81.0777L81.1234 91.1126C81.1538 83.4406 81.1843 82.238 81.3822 82.101C81.5497 82.0097 82.0674 82.1315 83.2094 82.5729C84.0925 82.9078 85.5694 83.4558 86.483 83.7907C87.4118 84.1408 89.1171 84.7649 90.2896 85.1911C91.462 85.6174 93.35 86.3176 94.4768 86.7286C95.6035 87.1548 96.8825 87.6267 97.2936 87.7941C97.7199 87.9464 99.8364 88.7379 102.014 89.5295C104.191 90.3362 107.83 91.691 110.084 92.5282L110.324 92.617C112.519 93.4269 114.766 94.2564 115.413 94.4767C116.083 94.7202 117.56 95.253 118.686 95.6945C119.813 96.1207 121.397 96.7143 122.188 96.9883L122.189 96.9886C122.981 97.278 124.564 97.8561 125.69 98.2822C126.817 98.7085 127.792 99.1347 127.853 99.2412C127.898 99.3326 127.883 99.5913 127.807 99.8045C127.715 100.018 127.304 100.84 126.878 101.631C126.452 102.423 125.736 103.732 125.264 104.523C124.807 105.315 124.076 106.487 123.65 107.111C123.224 107.735 122.325 109.014 121.64 109.927C120.955 110.841 119.752 112.363 118.96 113.276C118.153 114.189 116.555 115.894 115.398 117.036C114.225 118.178 112.672 119.639 111.911 120.278C111.165 120.918 109.794 122.014 108.865 122.699C107.952 123.384 106.612 124.343 105.896 124.815C105.181 125.271 103.81 126.108 102.851 126.672C101.892 127.22 100.217 128.118 99.1207 128.651C98.0397 129.183 96.4257 129.899 95.5426 130.249C94.6595 130.614 93.0607 131.193 91.9644 131.573C90.8834 131.939 89.4673 132.38 88.8431 132.547C88.2188 132.715 87.0464 133.019 86.2546 133.217C85.4629 133.43 83.788 133.765 82.5242 133.963C81.2757 134.176 79.2506 134.45 78.0325 134.572C76.8144 134.694 75.2156 134.8 74.4543 134.816C73.7082 134.816 72.749 134.831 72.3227 134.831C71.9116 134.846 70.5412 134.816 69.2774 134.77C68.0289 134.724 66.1713 134.572 65.1664 134.45C64.1614 134.313 62.517 134.07 61.5121 133.887C60.5071 133.72 58.6191 133.309 57.3249 132.974C56.0307 132.639 54.1122 132.076 53.0616 131.741C52.0109 131.406 50.1686 130.721 48.9505 130.218C47.7324 129.716 45.7834 128.833 44.611 128.24C43.4386 127.661 41.7637 126.748 40.8806 126.215C39.9975 125.682 38.5358 124.723 37.607 124.099C36.6934 123.46 35.0033 122.212 33.8766 121.313C32.7498 120.4 30.7704 118.65 29.4914 117.386C28.1972 116.138 26.4766 114.311 25.6544 113.352C24.8322 112.393 23.7816 111.13 23.3248 110.536C22.868 109.942 21.9849 108.709 21.3607 107.796C20.7212 106.883 19.7467 105.33 19.1833 104.371C18.6199 103.412 17.7216 101.768 17.2039 100.718C16.671 99.6675 15.8792 97.9626 15.4529 96.9122C15.0113 95.8619 14.3109 94.02 13.8998 92.8022C13.4887 91.5845 12.8797 89.5295 12.5447 88.2356C12.2097 86.9417 11.7377 84.7192 11.4941 83.2884C11.2505 81.8575 10.9764 80.046 10.8546 79.2545C10.7328 78.3107 10.6719 76.0426 10.6719 72.785C10.6719 69.5275 10.7328 67.2594 10.8546 66.3156C10.9764 65.524 11.2505 63.7126 11.4941 62.2817C11.7377 60.8508 12.2097 58.6284 12.5447 57.3345C12.8797 56.0406 13.4887 53.9856 13.8998 52.7678C14.3109 51.55 15.0113 49.7082 15.4529 48.6578C15.8792 47.6075 16.671 45.9026 17.2039 44.8523C17.7216 43.8019 18.6199 42.1579 19.1833 41.1989C19.7467 40.2399 20.7212 38.7025 21.3607 37.7739C21.9849 36.8454 22.868 35.6276 23.3248 35.0339C23.7816 34.4403 24.8322 33.1768 25.6544 32.2178C26.4766 31.2588 28.1972 29.4474 29.4914 28.184C30.7857 26.9357 32.6585 25.2461 33.6482 24.4393C34.6531 23.6325 36.13 22.5213 36.9218 21.9428C37.7136 21.3796 39.221 20.3902 40.2716 19.7356C41.3222 19.0963 43.2102 18.046 44.4588 17.4066C45.7225 16.7673 47.7324 15.854 48.9505 15.3516C50.1686 14.8493 52.0109 14.1643 53.0616 13.8294C54.1122 13.4945 56.0307 12.9313 57.3249 12.5964C58.6191 12.2615 60.5071 11.8505 61.5121 11.6831C62.517 11.5004 64.1614 11.2569 65.1664 11.1199C66.1713 10.9981 68.0137 10.8611 69.247 10.8459Z" fill="#EFEA54"/>
<path d="M101.94 30.9693C103.325 29.1122 104.574 27.4682 104.726 27.316C104.863 27.1638 105.137 27.042 105.335 27.042C105.533 27.042 106.614 27.7422 108.03 28.8078C109.324 29.782 110.436 30.6497 110.497 30.7562C110.558 30.8475 110.619 31.1063 110.619 31.3347C110.619 31.6543 109.903 32.7047 107.924 35.3533C105.35 38.7479 105.229 38.9458 105.518 39.1436C105.685 39.2502 107.284 40.4375 109.066 41.7923C111.091 43.3298 112.324 44.3649 112.385 44.578C112.431 44.7759 112.385 45.0955 112.278 45.3086C112.172 45.5218 111.365 46.6482 110.497 47.8203C109.614 48.9924 108.822 49.9971 108.731 50.058C108.639 50.1189 108.396 50.1798 108.182 50.1798C107.924 50.195 106.751 49.4034 104.376 47.6072C102.488 46.1763 100.904 45.0042 100.843 45.0042C100.767 45.0042 99.7167 46.359 98.4986 48.003C97.2653 49.6622 96.0929 51.1996 95.8645 51.4432C95.6513 51.6715 95.3163 51.8542 95.1336 51.8542C94.9357 51.8542 93.748 51.0779 92.3472 50.0275C90.8551 48.9011 89.8806 48.0639 89.8197 47.8508C89.7588 47.6681 89.774 47.4093 89.8501 47.2875C89.911 47.1658 91.053 45.5979 92.3777 43.8169C93.7024 42.0511 94.7682 40.5289 94.753 40.4528C94.7225 40.3766 93.139 39.1284 91.2357 37.6671C89.302 36.2058 87.7185 34.8967 87.6728 34.7292C87.6271 34.5618 87.688 34.2421 87.8098 34.029C87.9164 33.8159 88.7691 32.6285 89.6826 31.4108C90.7637 29.9494 91.4793 29.1427 91.7077 29.097C91.8904 29.0513 92.1341 29.0665 92.2406 29.1274C92.332 29.1883 93.946 30.3757 95.8188 31.7913C97.6764 33.1918 99.2447 34.3487 99.3208 34.3487C99.3817 34.3487 100.554 32.8264 101.94 30.9693Z" fill="#313131"/>
<path d="M76.1161 43.1166C77.5626 41.153 78.8873 39.4785 79.0395 39.3872C79.207 39.2959 79.405 39.2198 79.4811 39.2198C79.5572 39.2198 80.1206 39.5546 80.6992 39.9656C81.293 40.3766 82.4198 41.2291 83.2115 41.838C84.4601 42.797 84.658 43.0253 84.7037 43.4515C84.7341 43.8778 84.3687 44.4258 82.0695 47.5159C80.6078 49.4795 79.4202 51.154 79.4506 51.2301C79.4659 51.3062 81.0342 52.5392 82.9527 53.9701C85.1605 55.6293 86.4395 56.6949 86.5004 56.908C86.546 57.1059 86.5004 57.4255 86.3938 57.6386C86.2872 57.8517 85.4954 58.9782 84.6275 60.1503C83.7444 61.3224 82.8918 62.3727 82.7091 62.4641C82.5263 62.5706 82.237 62.6163 82.0695 62.5554C81.9021 62.5097 80.2424 61.3072 78.3848 59.9067C76.512 58.4911 74.9285 57.3494 74.8371 57.3646C74.761 57.3951 73.619 58.8412 72.3096 60.607C71.0001 62.3575 69.8582 63.8493 69.7516 63.9102C69.6602 63.9711 69.4166 64.032 69.2034 64.032C68.9598 64.032 68.0919 63.484 66.6911 62.4184C65.5187 61.5355 64.4072 60.6679 64.2092 60.4852C64.0265 60.3025 63.8743 60.0133 63.8743 59.8459C63.8743 59.6784 65.001 58.0344 66.3866 56.1925C67.7569 54.3506 68.8837 52.8132 68.8837 52.7675C68.8837 52.7219 67.3306 51.5345 65.4426 50.1036C63.5545 48.6728 61.9253 47.3636 61.834 47.1658C61.7122 46.9222 61.7122 46.7395 61.8644 46.4503C61.9558 46.2372 62.778 45.0955 63.6611 43.893C64.5594 42.7056 65.3664 41.6858 65.4578 41.6249C65.5491 41.564 65.7928 41.5031 66.0059 41.5031C66.2648 41.4879 67.4372 42.2794 69.8125 44.0756C71.7005 45.5065 73.284 46.6786 73.3602 46.6786C73.4211 46.6786 74.6544 45.0803 76.1161 43.1166Z" fill="#313131"/>
</svg>
